<?xml version="1.0" standalone="no"?>
<!DOCTYPE svg PUBLIC "-//W3C//DTD SVG 20010904//EN"
 "http://www.w3.org/TR/2001/REC-SVG-20010904/DTD/svg10.dtd">
<svg version="1.0" xmlns="http://www.w3.org/2000/svg"
 width="297.499532pt" height="297.024725pt" viewBox="0 0 297.499532 297.024725"
 preserveAspectRatio="xMidYMid meet">
<metadata>
Created by potrace 1.12, written by Peter Selinger 2001-2015
</metadata>
<g transform="translate(-0.278193,297.645917) scale(0.100000,-0.100000)"
fill="#000000" stroke="none">
<path d="M1310 2970 c-657 -92 -1165 -573 -1284 -1215 -87 -472 72 -975 416
-1317 556 -550 1435 -578 2027 -64 351 305 549 798 502 1251 -71 668 -537
1187 -1189 1325 -111 24 -368 34 -472 20z m294 -20 c507 -42 952 -338 1185
-789 74 -144 116 -271 143 -426 17 -101 19 -147 15 -290 -6 -176 -18 -254 -64
-400 -147 -467 -548 -845 -1026 -969 -278 -72 -603 -57 -867 41 -207 76 -366
179 -531 343 -225 224 -368 500 -415 805 -24 157 -15 409 19 555 145 616 675
1076 1297 1129 52 5 100 9 106 10 6 0 68 -4 138 -9z"/>
<path d="M1400 2914 c-675 -55 -1209 -541 -1315 -1199 -20 -119 -19 -337 1
-456 36 -211 136 -446 259 -611 210 -280 494 -464 839 -546 100 -24 130 -26
306 -26 176 0 206 2 306 26 274 65 497 187 692 380 205 202 336 445 399 738
26 122 26 430 -1 550 -144 659 -679 1113 -1346 1143 -52 2 -115 3 -140 1z m70
-109 c0 -2 -18 -23 -40 -47 -33 -35 -38 -44 -24 -47 10 -2 24 5 31 15 10 14
16 15 25 6 10 -10 10 -15 1 -20 -6 -4 -11 -14 -11 -22 3 -45 -3 -90 -12 -90
-5 0 -10 7 -10 15 0 18 -21 20 -38 3 -18 -18 -27 -1 -13 28 9 20 14 24 25 15
10 -9 15 -8 20 5 10 25 -4 37 -35 30 -40 -8 -37 8 11 60 22 24 40 48 40 53 0
6 7 8 15 5 8 -4 15 -8 15 -9z m103 -56 c-3 -17 0 -35 8 -45 11 -13 10 -17 -4
-25 -9 -6 -17 -20 -17 -32 0 -12 -7 -42 -14 -67 l-15 -45 0 63 c-1 34 -4 62
-7 62 -3 0 -14 -5 -26 -11 -28 -15 -32 -6 -13 31 9 17 14 38 11 46 -3 7 -1 16
5 20 5 3 7 14 4 25 -5 14 -2 17 8 13 7 -2 20 2 27 11 13 16 15 15 26 0 8 -10
11 -30 7 -46z m619 -139 c-5 -32 -32 -42 -32 -12 0 18 18 42 30 42 4 0 5 -13
2 -30z m-1370 -2 c13 -11 106 -142 131 -185 5 -7 -7 -22 -30 -37 -41 -28 -109
-35 -132 -13 -11 10 -13 9 -7 -6 33 -95 7 -86 -50 16 -24 43 -39 75 -33 72 5
-4 9 12 9 35 0 45 11 72 43 108 23 25 46 28 69 10z m1425 -46 c-24 -4 -31 3
-23 23 5 14 8 13 23 -2 18 -17 18 -18 0 -21z m-9 -17 c50 0 62 -3 60 -15 -2
-10 -13 -14 -31 -12 -21 3 -27 -1 -27 -15 -1 -23 -23 -53 -40 -53 -9 0 -8 6 5
20 38 43 -20 76 -82 46 -43 -20 -51 -15 -29 19 15 23 21 25 49 18 18 -4 60 -8
95 -8z m-575 -50 c392 -68 715 -367 812 -751 121 -475 -113 -966 -559 -1175
-391 -183 -859 -94 -1158 219 -199 209 -300 479 -284 757 35 609 592 1054
1189 950z m488 -5 c24 -13 24 -36 0 -49 -27 -15 -32 -46 -9 -60 27 -16 16 -26
-12 -11 -16 9 -25 9 -33 1 -18 -18 -42 -13 -67 14 -13 14 -19 25 -13 25 6 0
16 -7 23 -15 14 -16 50 -21 50 -6 0 5 -16 19 -35 31 -19 12 -35 26 -35 31 0
15 10 11 42 -16 34 -28 48 -32 48 -10 0 7 7 18 16 23 14 8 14 10 0 25 -28 27
-13 37 25 17z m459 -349 c13 -26 13 -31 -4 -31 -7 0 -21 -11 -30 -25 -19 -28
-43 -33 -48 -9 -3 14 -6 13 -28 -4 -26 -20 -92 -37 -103 -26 -12 13 17 53 46
64 45 15 97 13 97 -5 0 -8 4 -15 9 -15 15 0 33 29 28 44 -12 29 17 35 33 7z
m-2244 -96 c7 -37 24 -58 24 -30 0 9 5 13 10 10 6 -3 10 -17 10 -30 0 -15 16
-37 46 -64 47 -41 44 -51 -10 -28 -26 11 -32 11 -48 -5 -10 -10 -18 -25 -18
-33 0 -20 -50 -20 -76 1 -18 15 -18 15 4 11 31 -7 36 11 17 56 -15 36 -48 63
-65 52 -15 -9 -22 15 -9 31 9 11 22 14 41 10 21 -4 28 -2 28 10 0 23 20 55 30
49 5 -3 12 -21 16 -40z m2260 0 c-11 -8 -16 -15 -10 -15 5 0 25 -14 44 -30 34
-29 34 -31 16 -45 -18 -13 -25 -12 -73 15 -29 17 -53 27 -53 22 0 -4 9 -13 20
-20 23 -14 27 -37 6 -29 -23 9 -76 -21 -69 -38 3 -8 14 -15 24 -15 17 0 18 -3
7 -20 -17 -26 -27 -25 -38 4 -5 13 -14 26 -21 28 -18 6 -2 27 29 40 l27 11
-24 6 c-34 9 -39 31 -7 31 13 0 28 5 31 10 4 6 15 8 26 5 10 -4 19 -2 19 3 0
6 -5 12 -12 14 -6 2 -9 12 -5 21 4 12 18 17 44 17 36 -1 37 -2 19 -15z m74 -5
c0 -11 -6 -20 -13 -20 -21 0 -27 11 -14 26 17 19 27 17 27 -6z m-2292 -946
c12 -8 22 -24 22 -34 0 -11 9 -34 20 -52 22 -36 26 -53 10 -43 -20 12 -51 -6
-48 -28 4 -28 23 -32 46 -9 20 20 20 19 61 -45 l42 -65 -17 -50 c-9 -27 -14
-51 -12 -53 9 -9 58 47 52 58 -12 20 57 -46 78 -76 16 -22 17 -31 8 -42 -18
-21 -33 -19 -21 3 14 26 -3 50 -26 36 -24 -15 -28 -34 -7 -34 16 0 16 -1 -1
-20 -21 -24 -37 -26 -29 -5 8 19 -10 19 -26 0 -19 -23 -5 -46 27 -43 26 3 28
1 25 -29 -3 -36 13 -52 34 -31 10 10 12 22 5 44 -10 34 0 58 28 74 15 8 27 3
58 -24 21 -19 51 -45 66 -58 26 -21 27 -25 13 -43 -15 -19 -15 -19 -16 7 0 35
-19 46 -37 23 -19 -27 -16 -37 8 -30 20 7 20 6 4 -19 -19 -28 -38 -36 -29 -11
8 21 -9 19 -29 -3 -23 -25 -7 -47 29 -38 28 7 28 7 10 -13 l-19 -20 -44 31
c-32 23 -40 34 -29 38 19 6 75 80 76 99 0 11 -3 11 -16 0 -13 -11 -15 -9 -12
16 2 22 -2 30 -16 33 -17 4 -18 0 -12 -43 12 -75 -33 -109 -84 -65 -23 20 -23
20 -4 41 19 22 19 22 -3 8 -21 -12 -25 -11 -58 21 -37 36 -43 50 -22 50 8 0
34 19 58 41 60 56 34 63 -36 10 -60 -45 -63 -42 -40 34 8 27 13 50 12 52 -7 6
-66 -50 -62 -58 4 -5 1 -9 -5 -9 -7 0 -14 9 -17 20 -3 11 -9 20 -13 20 -6 0
-30 44 -30 56 0 3 6 4 13 2 30 -6 120 63 103 80 -7 7 -62 -17 -102 -44 -33
-22 -34 -23 -44 -4 -14 26 -13 30 8 30 10 0 27 6 38 14 18 14 18 16 3 31 -13
14 -21 15 -38 6 -11 -7 -21 -16 -21 -21 0 -19 -17 -10 -28 15 -15 33 -15 34 6
28 9 -2 39 8 65 22 49 28 61 41 27 30 -23 -7 -28 10 -5 19 20 7 19 45 0 53
-25 9 -103 -26 -111 -49 -7 -23 2 -34 31 -41 19 -4 18 -5 -2 -6 -26 -1 -53 24
-53 49 0 32 52 69 110 79 3 1 16 -6 28 -15z m2193 -34 c5 0 9 -4 9 -10 0 -5
-11 -10 -25 -10 -15 0 -25 -6 -25 -14 0 -25 19 -28 46 -7 32 25 51 26 76 4 21
-19 23 -41 3 -66 -9 -13 -20 -17 -34 -12 -29 9 -26 23 4 17 28 -5 45 22 26 41
-9 9 -20 7 -45 -7 -62 -33 -114 -4 -86 49 8 15 19 24 28 20 7 -3 18 -5 23 -5z
m-46 -98 c-34 -7 -42 -22 -21 -38 27 -20 38 -18 31 6 -6 19 -4 19 19 9 14 -7
26 -16 26 -21 0 -5 -4 -7 -9 -3 -5 3 -13 0 -17 -6 -8 -13 13 -29 40 -29 15 0
17 6 14 30 -5 32 3 38 21 16 9 -10 5 -25 -16 -62 -16 -28 -29 -42 -31 -34 -3
18 -108 77 -118 67 -4 -4 1 -14 12 -22 18 -14 18 -14 -9 -15 -16 0 -30 -7 -34
-17 -9 -24 49 -73 88 -73 29 0 31 2 27 30 -5 35 -3 37 12 9 9 -16 8 -26 -5
-45 -19 -29 -59 -32 -95 -7 -54 37 -62 67 -31 111 10 15 30 48 45 75 25 44 29
46 49 35 21 -12 21 -12 2 -16z m-68 -226 l55 -46 -68 0 -69 0 30 -25 c17 -13
36 -22 43 -20 14 5 16 -7 2 -21 -7 -7 -27 6 -61 38 -28 26 -55 45 -61 42 -5
-3 -4 -12 4 -21 11 -14 10 -15 -7 -10 -11 4 -27 2 -35 -3 -12 -7 -12 -12 4
-29 20 -22 39 -19 29 4 -8 22 0 18 28 -12 18 -19 19 -25 7 -20 -25 9 -30 -8
-8 -28 23 -21 40 -12 40 23 0 25 1 25 17 9 16 -16 15 -19 -22 -57 -25 -25 -41
-36 -44 -28 -2 7 -20 30 -39 51 -35 36 -62 48 -62 26 0 -18 60 -89 76 -89 21
0 17 -17 -8 -35 -21 -14 -23 -14 -28 3 -6 25 -66 92 -81 92 -8 0 -8 -4 1 -15
16 -19 5 -32 -13 -16 -18 14 -47 4 -47 -16 0 -28 41 -83 67 -89 29 -8 45 10
37 41 -4 16 -3 17 5 5 38 -54 -50 -97 -97 -47 -45 48 -47 99 -4 121 15 8 63
48 107 90 79 75 80 76 135 76 l55 1 -24 19 c-13 11 -29 20 -37 20 -17 0 -18
12 -1 29 10 10 13 9 15 -3 2 -8 28 -35 59 -60z m-347 -258 c0 -5 -11 -1 -25 8
-23 15 -25 15 -31 0 -9 -23 0 -29 44 -33 59 -4 83 -61 37 -87 -11 -6 -23 -15
-26 -20 -4 -4 -14 2 -22 15 -18 25 -14 40 5 21 16 -16 45 -15 51 2 8 21 -13
36 -50 36 -24 0 -37 7 -49 25 -19 30 -13 52 18 64 22 9 48 -8 48 -31z m-1194
-35 c-4 -21 -9 -59 -13 -85 -6 -52 -10 -55 -38 -35 -12 10 -14 16 -7 21 18 11
14 43 -4 50 -21 8 -44 -11 -37 -31 5 -13 3 -14 -17 -3 -22 12 -22 12 16 43 21
18 50 42 64 54 36 32 44 28 36 -14z m104 -18 c7 -8 16 -12 21 -9 5 3 9 1 9 -5
0 -18 -12 -41 -22 -41 -5 0 -7 4 -4 9 10 16 -5 41 -25 41 -23 0 -48 -37 -56
-84 -4 -28 -2 -37 12 -42 10 -4 27 -1 39 6 19 12 20 12 7 -3 -29 -35 -91 -8
-91 40 0 71 74 131 110 88z m944 -1 c4 -9 3 -20 0 -23 -4 -3 -9 0 -11 7 -6 17
-43 15 -43 -2 0 -38 30 -66 30 -28 1 15 2 15 15 -2 8 -11 15 -27 14 -35 0 -11
-2 -12 -6 -3 -4 11 -33 18 -33 7 0 -14 25 -55 34 -55 15 -1 -25 -30 -41 -30
-7 0 -10 6 -7 14 3 8 -7 42 -23 75 l-29 59 31 16 c40 20 61 20 69 0z m-849
-110 c0 -63 3 -79 15 -79 16 0 43 98 34 126 -4 14 1 15 36 9 57 -10 70 -25 70
-77 0 -57 -35 -97 -77 -87 -71 15 -137 37 -125 41 6 3 12 16 12 30 0 20 -4 24
-22 21 -15 -2 -24 -11 -26 -24 -2 -16 -8 -20 -22 -17 -16 4 -12 13 31 66 27
34 49 65 49 70 0 5 6 7 13 4 8 -3 12 -29 12 -83z m740 51 c32 -31 34 -93 6
-119 -43 -39 -111 5 -113 72 -2 66 61 94 107 47z m-444 -25 c22 0 28 -7 44
-57 l18 -58 14 50 c8 28 18 53 21 56 14 13 93 18 90 6 -3 -17 12 -57 22 -57
15 0 22 53 8 61 -9 6 -4 9 14 9 26 0 26 0 12 -30 -24 -47 -28 -94 -10 -112 14
-14 12 -16 -18 -20 -33 -4 -34 -3 -29 28 4 22 -2 42 -21 73 -15 23 -30 40 -34
37 -4 -2 -5 -36 -2 -75 l5 -71 -30 1 c-16 0 -24 3 -17 6 7 3 12 24 11 56 l-1
52 -17 -54 c-9 -30 -21 -56 -27 -58 -6 -2 -19 23 -30 54 l-19 58 -3 -43 c-2
-24 2 -50 9 -58 9 -12 6 -14 -23 -14 -67 0 -128 12 -121 24 14 22 20 121 9
135 -9 12 -3 13 44 8 30 -4 67 -7 81 -7z"/>
<path d="M1524 2749 c-3 -6 -1 -16 5 -22 8 -8 11 -5 11 11 0 24 -5 28 -16 11z"/>
<path d="M1510 2690 c-9 -16 -8 -18 5 -14 8 4 15 12 15 20 0 20 -7 17 -20 -6z"/>
<path d="M750 2568 c-25 -42 -25 -48 3 -48 26 0 62 -34 70 -65 4 -16 5 -14 6
6 1 31 25 56 36 39 4 -7 3 -16 -3 -22 -6 -6 -6 -20 2 -40 9 -25 8 -31 -7 -39
-9 -6 -17 -14 -17 -19 0 -18 35 -10 65 15 25 21 28 27 18 42 -7 10 -26 42 -43
70 -32 54 -72 93 -96 93 -8 0 -23 -15 -34 -32z m70 -38 c0 -5 -7 -10 -15 -10
-8 0 -15 5 -15 10 0 6 7 10 15 10 8 0 15 -4 15 -10z"/>
<path d="M730 2460 c0 -12 -4 -18 -10 -15 -5 3 2 -18 17 -47 14 -29 28 -47 30
-41 3 7 -6 27 -18 45 l-23 33 25 -21 c13 -12 34 -27 47 -33 21 -11 22 -10 22
21 0 29 -1 30 -13 13 -15 -19 -37 -13 -37 11 0 8 -5 14 -10 14 -6 0 -10 7 -8
16 2 10 -3 19 -9 21 -8 3 -13 -4 -13 -17z"/>
<path d="M1355 2463 c-379 -60 -685 -321 -798 -679 -102 -322 -29 -669 197
-937 60 -72 189 -171 286 -221 158 -81 282 -110 460 -109 100 1 145 6 225 27
244 64 443 204 579 410 285 428 187 1006 -224 1318 -85 65 -244 142 -350 169
-84 21 -300 34 -375 22z m330 -39 c164 -31 320 -114 452 -238 136 -128 217
-259 269 -433 36 -119 44 -308 19 -438 -81 -430 -449 -751 -885 -772 -139 -7
-231 6 -363 51 -134 46 -243 114 -347 216 -132 129 -211 261 -260 431 -28 94
-38 297 -20 405 32 201 129 382 281 530 233 225 526 310 854 248z"/>
<path d="M1510 2361 l-135 -58 -71 -204 c-39 -112 -74 -203 -78 -202 -3 2 -41
42 -83 90 -46 54 -86 90 -102 94 -14 4 -82 7 -151 8 l-125 1 -18 -147 c-16
-142 -16 -147 1 -167 84 -94 262 -304 262 -309 0 -3 -56 -16 -124 -28 l-124
-23 -51 -85 c-28 -47 -62 -105 -76 -127 l-25 -42 115 -86 c63 -47 123 -86 132
-86 10 1 106 18 213 39 107 21 197 37 200 34 3 -2 -14 -57 -36 -122 l-42 -118
68 -122 c37 -66 70 -124 73 -127 3 -4 66 19 140 51 l134 57 68 199 c37 110 71
201 75 204 3 2 44 -38 89 -90 l82 -95 148 0 148 0 12 118 c7 64 15 129 18 143
4 22 -16 50 -137 189 -90 102 -138 165 -131 169 6 4 55 15 109 25 53 10 105
20 114 22 10 3 51 61 92 130 l75 124 -118 89 -118 89 -207 -40 c-114 -22 -209
-38 -212 -35 -4 3 11 56 31 117 22 66 35 120 31 133 -3 12 -34 72 -69 134
l-62 111 -135 -57z m-23 -517 c15 -24 15 -29 2 -53 -11 -20 -22 -26 -49 -26
-27 0 -38 6 -49 26 -13 24 -13 29 2 53 12 18 26 26 47 26 21 0 35 -8 47 -26z
m301 -106 c30 -30 1 -98 -41 -98 -45 0 -70 48 -47 91 12 22 68 27 88 7z m-242
-65 c-4 -13 15 -33 69 -73 41 -30 68 -56 60 -58 -16 -4 -22 -25 -31 -120 -3
-40 -11 -75 -15 -78 -5 -3 -9 0 -9 5 0 18 -24 13 -110 -24 -70 -30 -80 -32
-75 -16 4 14 -12 31 -72 77 -52 39 -72 60 -61 62 19 4 24 22 34 120 6 66 16
90 26 60 3 -8 32 0 89 25 98 42 102 42 95 20z m-328 -19 c32 -22 30 -69 -4
-91 -24 -15 -29 -15 -53 -2 -32 18 -40 63 -15 90 21 23 42 24 72 3z m614 -241
c37 -34 15 -93 -35 -93 -39 0 -57 15 -57 49 0 52 54 78 92 44z m-552 -92 c22
-41 -2 -91 -43 -91 -45 0 -76 67 -45 98 20 20 76 15 88 -7z m295 -116 c14 -13
25 -31 25 -40 0 -21 -36 -55 -60 -55 -25 0 -60 34 -60 59 0 19 43 61 62 61 5
0 20 -11 33 -25z"/>
<path d="M1455 1581 c-50 -21 -71 -76 -50 -127 16 -38 41 -54 85 -54 17 0 40
5 52 11 26 14 48 67 41 101 -10 52 -79 90 -128 69z"/>
<path d="M330 2028 c0 -9 5 -20 11 -23 17 -11 20 0 4 21 -13 17 -14 17 -15 2z"/>
<path d="M350 1928 c0 -22 17 -41 29 -34 16 10 13 33 -5 40 -22 8 -24 8 -24
-6z"/>
<path d="M2590 2013 c1 -18 43 -53 64 -53 17 0 2 28 -23 43 -32 19 -41 21 -41
10z"/>
<path d="M457 809 c-40 -25 -47 -33 -37 -45 11 -12 19 -9 58 20 80 59 63 78
-21 25z"/>
<path d="M897 432 c-10 -10 -14 -22 -10 -25 12 -13 21 -7 25 18 6 30 6 30 -15
7z"/>
<path d="M1102 348 c-15 -15 -16 -38 -2 -38 12 0 23 25 18 40 -2 7 -7 7 -16
-2z"/>
<path d="M1221 300 c-15 -70 -14 -80 8 -80 39 0 57 121 19 128 -12 2 -19 -9
-27 -48z"/>
<path d="M1811 366 c-9 -11 -9 -25 -2 -53 15 -54 34 -78 56 -69 33 12 1 136
-35 136 -4 0 -13 -6 -19 -14z"/>
<path d="M1358 305 c-5 -26 16 -36 25 -12 3 6 6 -3 6 -20 1 -18 -3 -33 -9 -33
-5 0 -10 5 -10 10 0 6 -4 10 -10 10 -5 0 -10 -13 -10 -30 0 -23 4 -30 20 -30
10 0 24 8 29 18 9 15 10 15 11 -5 0 -13 5 -23 10 -23 6 0 10 30 9 73 -1 39 -3
64 -6 55 -6 -22 -19 -23 -27 -3 -9 24 -33 17 -38 -10z"/>
</g>
</svg>
