<?xml version="1.0" standalone="yes"?>
<svg xmlns="http://www.w3.org/2000/svg" width="298" height="298">
<path style="fill:#ffffff; stroke:none;" d="M0 0L0 133C1.9217 128.463 1.77099 122.855 2.88735 118C5.16015 108.116 8.07827 98.239 12.3086 89C29.0742 52.3847 59.0875 23.1208 97 8.94986C107.7 4.95038 119.493 1.23755 131 1C126.785 -0.768738 121.536 0 117 0L91 0L0 0z"/>
<path style="fill:#174994; stroke:none;" d="M131 0.425171C108.633 3.46985 86.9585 10.5275 68 23.0031C50.1795 34.7298 35.4675 49.2124 23.6674 67C-14.6659 124.784 -5.78558 206.035 43.0895 254.91C76.1102 287.931 124.051 302.907 170 296.718C190.826 293.912 211.275 286.596 229 275.305C300.544 229.73 320.061 129.907 270.255 61C259.758 46.478 246.891 34.2598 232 24.3333C217.727 14.8189 201.721 7.60568 185 3.65433C167.943 -0.376434 148.449 -1.95001 131 0.425171z"/>
<path style="fill:#ffffff; stroke:none;" d="M167 0C172.434 2.34396 179.202 2.44608 185 3.89508C195.329 6.47668 205.474 10.2064 215 14.9691C250.028 32.4831 277.827 63.8121 290.333 101C293.757 111.182 296.911 122.196 297 133C298.769 128.785 298 123.536 298 119L298 93L298 0L167 0M137 3.42438C109.098 7.09863 83.7786 15.3635 61 32.4753C47.5262 42.5972 36.263 54.9557 27.0031 69C-12.484 128.889 -1.2257 211.532 53 258.711C69.9978 273.5 90.3107 283.983 112 289.849C129.486 294.578 148.063 295.918 166 293.714C188.053 291.004 209.321 283.339 228 271.308C241.892 262.36 254.311 251.144 264.346 238C312.563 174.842 301.491 82.001 238 33.2354C223.412 22.0305 206.678 13.6234 189 8.5787C172.581 3.89337 154.062 1.17761 137 3.42438z"/>
<path style="fill:#174994; stroke:none;" d="M136 6.42438C110.458 9.78796 87.382 17.2537 66 32.0255C51.394 42.116 39.0448 55.1671 29.3441 70C-10.0806 130.283 2.18173 213.671 58 259.536C73.0882 271.934 91.212 281.271 110 286.572C128.361 291.752 148.132 293.032 167 290.714C187.204 288.231 206.596 281.307 224 270.796C238.417 262.09 251.658 250.423 261.87 237C311.035 172.371 297.793 75.5829 229 30.0038C215.494 21.0556 200.716 14.3548 185 10.3742C169.402 6.42343 152.064 4.30896 136 6.42438z"/>
<path style="fill:#ffffff; stroke:none;" d="M144 17L144 19L146 19L146 17L144 17M155 18C150.68 22.3559 149.542 27.185 148 33L151 32L152 22L154 22L153 41C156.765 34.985 159.231 24.1913 155 18M143 20L142 22C143.263 21.0287 143.392 21.3062 143 20M140 23C138.652 24.7676 137.878 25.9825 137 28C139.013 26.5878 139.836 25.4681 140 23M144 25C142.868 29.6091 142.293 33.4954 144 38C145.078 33.704 144.506 29.3854 146 25L144 25M139 32L138 36C139.457 34.8966 139.897 34.4566 141 33L139 32M218 35C217.124 37.1041 216.954 37.7523 217 40C218.475 38.0647 218.791 37.3073 218 35M80 37L81 38L80 37M82 38C82.5451 39.6352 82.3648 39.455 84 40C83.455 38.3649 83.6351 38.545 82 38M223 39C223.406 41.0924 223.217 41.0197 225 42C224.309 40.6115 224.015 40.1394 223 39M72 43C72.6909 47.5789 74.9736 51.635 79 54L80 49L77 50L78 47L73 47C72.8259 45.3149 72.683 44.506 72 43M209 47L215 45C212.031 43.2564 210.627 44.1085 209 47M79 44C79.5451 45.6352 79.3648 45.4549 81 46C80.4549 44.3648 80.6352 44.5451 79 44M218.667 44.3333C218.222 44.7778 219.278 44.7222 219.333 44.6667C219.778 44.2222 218.722 44.2777 218.667 44.3333M228 44L228 46C229.635 45.455 229.455 45.6351 230 44L228 44M221 45C221.545 46.6352 221.365 46.4549 223 47L223 45L221 45M148 47.5941C132.332 48.1603 117.022 51.138 103 58.4861C90.699 64.9324 80.1051 73.4314 71.1343 84C33.5981 128.222 43.2502 197.61 90 231.254C109.21 245.078 132.541 250.988 156 249.961C168.38 249.419 180.744 245.512 192 240.575C202.84 235.821 212.696 228.359 220.996 219.999C263.086 177.608 258.121 106.732 212 69.4606C202.899 62.1056 192.11 56.3312 181 52.6705C170.478 49.2037 159.107 47.1927 148 47.5941M71.3333 48.6667C71.2778 48.7222 71.2222 49.7778 71.6667 49.3333C71.7223 49.2777 71.7778 48.2223 71.3333 48.6667M85 48C84.3562 50.1059 84.0941 51.7951 84 54C85.1377 51.8538 85.5515 50.3595 85 48M222.333 48.6667C222.278 48.7222 222.222 49.7778 222.667 49.3333C222.722 49.2777 222.778 48.2223 222.333 48.6667M212 49C212.968 51.4201 212.794 52.504 212 55L216 53C215.161 50.3735 214.626 49.8387 212 49z"/>
<path style="fill:#174994; stroke:none;" d="M143 50.4244C134.162 51.5882 125.522 52.5165 117 55.3549C93.1695 63.2924 72.9897 80.811 61.3202 103C41.7568 140.199 49.4783 189.299 79.0895 218.91C99.8431 239.664 130.863 250.199 160 246.715C204.962 241.337 242.406 205.717 246.83 160C251.736 109.307 218.338 60.5693 167 51.9205C159.195 50.6057 150.891 49.3853 143 50.4244z"/>
<path style="fill:#ffffff; stroke:none;" d="M81 51L82 52L81 51M91 51L92 52L91 51M221 51L222 52L221 51M203.333 52.6667C203.278 52.7222 203.222 53.7778 203.667 53.3333C203.722 53.2778 203.778 52.2222 203.333 52.6667M80 54L81 55L80 54M93 54C92.6199 56.9745 90.7835 58.6302 89 61C92.0054 59.2008 94.9614 57.5292 93 54M60 182C66.0169 174.813 68.8332 162.516 76.3789 156.857C82.3839 152.354 92.9815 153.376 100 151C94.7816 143.111 87.9176 136.138 81.7184 129C78.8424 125.689 74.8008 122.293 73.4128 118C70.7757 109.843 75.3336 97.4435 76 89L96 89C99.1682 89.0002 103.014 88.4731 105.91 90.0278C111.986 93.2891 118.086 102.422 122 108C127.637 100.464 129.953 87.9336 132.997 79C134.3 75.1745 135.138 70.4423 138.278 67.6381C143.04 63.3849 151.162 61.2884 157 58.8511C159.061 57.9909 161.608 56.6461 163.895 57.4066C166.359 58.2262 167.59 60.9103 168.765 63.0008C171.773 68.3516 177.896 75.7925 178.397 82C178.974 89.1577 173.218 99.1834 171 106C180.509 103.54 190.364 102.127 200 100.2C204.295 99.3409 209.706 97.2872 214 98.8688C219.744 100.984 225.185 106.431 229.999 110.13C232.003 111.67 234.854 113.429 235.554 116.039C236.221 118.526 234.382 120.982 233.198 123C229.958 128.524 226.444 137.568 220.896 141.062C215.084 144.721 204.733 145.13 198 146C202.155 154.923 211.174 162.548 217.576 170C220.01 172.834 223.575 175.919 224.718 179.576C225.641 182.531 224.668 186.031 224.282 189C223.457 195.328 222.8 201.672 222 208C229.387 201.982 233.884 191.696 237.396 183C250.068 151.624 243.674 113.674 221.7 88C185.708 45.9492 121.274 42.7258 82 82C69.7366 94.2634 61.1324 109.129 56.8951 126C52.1534 144.879 54.1261 163.63 60 182M86 55L85 58C86.2892 56.5574 86.4009 56.7662 86 55M78.6667 56.3333C78.2222 56.7778 79.2778 56.7222 79.3333 56.6667C79.7777 56.2223 78.7223 56.2777 78.6667 56.3333M82 57L82 62C83.1433 59.8455 83.2048 59.0975 82 57M209 57C209.691 58.3885 209.985 58.8606 211 60C211.986 58.5215 212 58.7968 212 57L209 57M77 60L78 61L77 60M213 60L214 61L213 60M86.6667 61.3333C86.2222 61.7778 87.2778 61.7222 87.3333 61.6667C87.7777 61.2222 86.7222 61.2778 86.6667 61.3333M206 61L207 62L206 61M78 64C78.0313 65.8318 77.9205 65.5587 79 67C78.7488 65.5485 78.6848 65.2483 78 64M258 83C258.564 84.7519 258.919 85.542 260 87C259.966 84.6633 259.902 84.3341 258 83M240 94C245.297 92.3027 250.311 91.2442 253 86C246.981 86.4916 241.37 87.4132 240 94M257 88C255.297 88.6981 254.809 88.8338 253 89C254.561 90.988 256.576 90.5504 257 88M34 90C33.0143 91.4786 33 91.2031 33 93C34.6352 93.5451 34.4549 93.3648 35 95C35.6514 92.7658 35.3182 91.9261 34 90M256 94C257.648 94.9241 259.175 95.4494 261 96L261 92C259.125 92.547 257.745 93.11 256 94M268 93L267 94L268 96L270 95C269.455 93.3648 269.635 93.5451 268 93M28 95C26.5645 96.4494 25.885 97.2222 25 99C30.3606 100.085 32.4091 102.939 34 108C34.4794 106.502 34.4001 106.65 34 105C38.6789 104.469 42.6062 106.559 47 108C44.2111 103.989 40.9901 100.907 40 96L38 99L37 96C36.3152 97.2484 36.2512 97.5484 36 99C34.3924 97.5502 33.9357 96.9486 33 95C30.9681 95.6055 30.0852 95.5112 28 95M262 96L263 97L262 96M258.333 97.6667C258.278 97.7224 258.222 98.7776 258.667 98.3333C258.722 98.2779 258.778 97.2222 258.333 97.6667M254 98L249 100C251.782 102.049 254.604 102.524 258 103C256.774 101.078 255.627 99.588 254 98M260 100L261 101L260 100M267 100C265.777 101.195 265.58 101.316 264 102C266.047 102.705 267.397 102.294 267 100M250 104C249.077 105.908 249.03 105.939 249 108C249.84 106.543 250.223 105.626 250 104M31 111C33.3316 111.985 35.4566 111.981 38 112C35.9718 109.401 34.0236 110.21 31 111M250 109C250.691 110.388 250.985 110.861 252 112L253 111C251.861 109.985 251.388 109.691 250 109M143.054 111.971C137.318 113.253 139.207 122.312 144.946 121.029C150.682 119.747 148.793 110.688 143.054 111.971M173.106 123.851C167.319 125.651 170.489 134.532 175.944 132.593C181.692 130.549 178.802 122.08 173.106 123.851M136 135C132.709 141.19 134.465 148.779 131 155C135.711 158.491 142.582 162.06 144 168C150.067 165.511 156.292 161.408 163 162C164.006 156.582 163.069 147.194 168 144C163.569 139.481 155.586 136.381 154 130C148.744 131.503 141.247 137.206 136 135M116.231 133.047C111.035 136.019 115.674 143.866 120.769 140.953C125.965 137.981 121.326 130.134 116.231 133.047z"/>
<path style="fill:#174994; stroke:none;" d="M145.015 139.742C133.017 144.453 140.956 162.953 152.985 157.99C164.904 153.072 157.036 135.022 145.015 139.742z"/>
<path style="fill:#ffffff; stroke:none;" d="M177.231 157.047C172.012 160.03 176.695 167.556 181.769 164.777C187.018 161.902 182.241 154.184 177.231 157.047M122.104 164.851C116.245 166.673 119.244 175.167 124.888 173.338C130.422 171.545 127.606 163.14 122.104 164.851M297 164C296.884 178.005 292.368 192.118 287.2 205C271.368 244.458 237.3 276.556 197 290C186.102 293.635 174.567 296.904 163 297C167.215 298.769 172.464 298 177 298L204 298L298 298L298 204L298 178C298 173.464 298.769 168.215 297 164M0 165L0 298L135 298C129.638 295.729 122.757 295.845 117 294.576C105.363 292.009 93.6673 288.064 83 282.73C48.9778 265.719 23.0304 236.224 9.20293 201C6.42547 193.925 4.26747 186.46 2.80401 179C1.90761 174.431 1.83561 169.255 0 165M152.228 176.801C146.668 178.824 150.028 187.644 155.772 185.238C161.09 183.011 157.445 174.902 152.228 176.801M61 183C69.7604 213.41 102.207 238.023 133 242C129.436 233.728 121.017 224.94 119.683 216C118.603 208.762 124.712 198.762 127 192C117.593 193.195 108.295 195.341 99 197.2C94.7518 198.049 89.3296 200.001 85 198.986C76.2328 196.932 69.071 187.019 61 183M28 195C32.2085 191.971 35.7637 190.243 41 190C36.1268 186.366 29.6927 189.512 28 195M175 190C172.159 198.715 168.903 207.299 166 216C164.576 220.268 163.429 226.117 160.301 229.502C153.911 236.414 140.366 235.135 135 243C139.979 243.001 145.076 244.044 150 243.791C169.102 242.81 187.138 237.545 203 226.653C209.69 222.059 217.507 216.491 221 209C213.178 209 200.073 211.515 193 207.972C185.614 204.273 181.364 195.132 175 190M257.667 192.333C257.222 192.778 258.278 192.722 258.333 192.667C258.778 192.222 257.722 192.278 257.667 192.333M42 193L43 194L42 193M42.6667 195.333C42.2222 195.778 43.2778 195.722 43.3333 195.667C43.7778 195.222 42.7222 195.278 42.6667 195.333M256 198C260.02 200.565 263.139 197.875 267 196C263.128 194.55 259.804 197.056 256 198M44 197C40.4006 200.638 34.819 201.696 32 206C36.9131 204.585 41.2933 201.96 46 200C45.3087 198.612 45.0154 198.139 44 197M252 202L255 201C253.234 200.599 253.443 200.711 252 202M264 202C265.377 202.911 266.44 203.404 268 204C266.686 202.382 266.123 202.307 264 202M35 211L36 214C40.5876 211.586 46.3814 209.614 49 205C44.1965 206.748 39.9407 209.577 35 211M250 205C252.619 209.614 258.412 211.586 263 214L264 211C259.087 209.585 254.707 206.96 250 205M257 205L257 207C258.635 206.455 258.455 206.635 259 205L257 205M264 205L265 208C265.401 206.234 265.289 206.443 264 205M50 210C46.9199 213.361 43.3442 215.616 39 217C39 218.797 39.0143 218.521 40 220C44.3509 217.578 48.2237 214.522 53 213L52 210L50 210M248.667 210.333C248.222 210.778 249.278 210.722 249.333 210.667C249.778 210.222 248.722 210.278 248.667 210.333M54 215C50.9402 219.928 49.755 225.512 48 231C52.2478 227.549 55.6722 220.507 54 215M244 215C246.576 220.589 250.749 223.548 257 223C252.495 220.45 248.308 217.933 244 215M241 219L242 220L241 219M59 222L60 223L59 222M43.3333 223.667C43.2778 223.722 43.2222 224.778 43.6667 224.333C43.7222 224.278 43.7778 223.222 43.3333 223.667M61 224C58.8451 228.526 55.1294 231.268 51 234C52.1034 235.457 52.5434 235.897 54 237C56.7784 233.111 60.1112 229.778 64 227C62.8966 225.543 62.4566 225.103 61 224M235 226C239.892 229.335 247.211 228.268 253 229C248.523 225.139 240.57 224.4 235 226M233.667 229.333C233.222 229.778 234.278 229.722 234.333 229.667C234.778 229.222 233.722 229.278 233.667 229.333M66.3333 230.667C66.2778 230.722 66.2222 231.778 66.6667 231.333C66.7222 231.278 66.7778 230.222 66.3333 230.667M230 232C228.814 233.186 228.472 233.584 228 235C231.707 237.611 234.794 240.796 238 244C239.457 242.897 239.897 242.457 241 241C236.575 238.939 233.579 235.248 230 232M60 233L61 234L60 233M68 233L69 234L68 233M236 234L236 236L238 236C237.455 234.365 237.635 234.545 236 234M246 234L246 236C247.635 235.455 247.455 235.635 248 234L246 234M66 235C65.1285 238.449 65.724 241.479 66 245C68.8644 241.716 68.231 238.574 66 235M225 236C224.043 237.517 223.613 238.339 223 240C227.147 242.215 229.861 245.856 232 250C233.457 248.897 233.897 248.457 235 247C230.778 243.963 228.178 240.029 225 236M72 237L73 238L72 237M243.333 237.667C243.278 237.722 243.222 238.778 243.667 238.333C243.722 238.278 243.778 237.222 243.333 237.667M75 238C73.2178 242.608 70.396 246.646 66 249C67.3411 250.274 68.4031 251.041 70 252C71.7533 247.47 74.6846 243.319 79 241C77.6589 239.726 76.5969 238.959 75 238M56 239C57.2483 239.685 57.5484 239.749 59 240C57.7516 239.315 57.4516 239.251 56 239M221 241C221.545 242.635 221.365 242.455 223 243C222.455 241.365 222.635 241.545 221 241M59 242L60 243L59 242M81.3333 243.667C81.2777 243.722 81.2222 244.778 81.6667 244.333C81.7222 244.278 81.7778 243.222 81.3333 243.667M215 244C215.649 250.292 218.616 254.708 225 256C220.983 252.266 218.34 248.248 215 244M63 246L64 247L63 246M75.3333 247.667C75.2778 247.722 75.2222 248.778 75.6667 248.333C75.7222 248.278 75.7778 247.222 75.3333 247.667M211 247C211.545 248.635 211.365 248.455 213 249C212.455 247.365 212.635 247.545 211 247M93 251C91.6928 255.132 88.3505 262.945 92 266C92.6519 260.952 93.725 255.928 95 251L93 251M207 252C210.103 255.517 213.596 255.912 218 257C215.339 252.905 211.456 253.074 207 252M71 253L72 254L71 253M227 253L228 254L227 253M73 254L74 255L73 254M197 254L195 255C196.482 255.791 197.796 255.87 197 254M96 268C97.3138 263.321 98.7188 259.354 101 255C95.7893 257.709 94.4293 262.52 96 268M190 257C192.205 261.636 193.909 266.916 197 271L197 262C194.395 260.421 193.781 258.943 193 256L190 257M86.6667 257.333C86.2222 257.778 87.2778 257.722 87.3333 257.667C87.7778 257.222 86.7222 257.278 86.6667 257.333M106 257L106 260C106.696 258.446 106.696 258.554 106 257M113 259C111.697 263.41 110.134 271.869 114 275C114 269.91 114.982 263.724 113 259M82 260C82.5451 261.635 82.3648 261.455 84 262L84 260L82 260M185 260C187.038 263.988 188.604 267.504 189 272C192.024 267.369 189.591 262.402 185 260M120 261C120.282 266.193 118.775 271.166 117 276C121.679 274.631 124.367 263.635 120 261M212 261C212.545 262.635 212.365 262.455 214 263L214 261L212 261M179 262C177.224 268.479 180.189 273.945 187 275C181.512 271.371 181.49 267.535 179 262M198 262L199 263L198 262M127 263C128.16 268.049 127.683 272.188 124 276C130.633 276.147 130.635 266.573 127 263M132 263C133.232 267.58 129.678 277.86 135 279C134.034 274.047 134.834 268.884 136 264L132 263M166 263C167.248 263.685 167.548 263.749 169 264C167.752 263.315 167.452 263.251 166 263M139 264C139.545 265.635 139.365 265.455 141 266L141 264L139 264M158 264C159.435 266.732 161.402 269.204 162.722 272C164.209 275.149 163.233 278.193 167 279C165.784 273.977 162.518 268.888 162 264L158 264M144 265L149 280C151.353 275.367 148.279 267.608 144 265M154 265C154.014 270.06 155.081 275.029 154 280L157 280C155.817 275.03 156 270.081 156 265L154 265M107 266L108 267L107 266M99 269L100 270L99 269M138 269L137 272C138.289 270.557 138.401 270.766 138 269M104.333 270.667C104.278 270.722 104.222 271.778 104.667 271.333C104.722 271.278 104.778 270.222 104.333 270.667M140 276L141 277L140 276M138.667 278.333C138.222 278.778 139.278 278.722 139.333 278.667C139.778 278.222 138.722 278.278 138.667 278.333M142 280L145 280L144 278C142.365 278.545 142.545 278.365 142 280z"/>
</svg>
